<?xml version="1.0" encoding="UTF-8"?>
<svg  width="24" height="24" version="1.1" viewBox="0 0 700 700" xmlns="http://www.w3.org/2000/svg" xmlns:xlink="http://www.w3.org/1999/xlink">
  <g>
  <path fill="#fff" d="m559.44 70.559c-5.6016-5.6016-14.559-7.2812-21.84-3.9219l-390.88 173.6c-7.8398 3.3594-12.32 11.199-11.762 19.602 0.55859 8.3984 6.7188 15.121 14.559 17.359l162.4 40.32 40.32 162.4c2.2383 7.8398 8.9609 14 17.359 14.559h1.6797c7.8398 0 14.559-4.4805 17.922-11.762l173.6-390.88c3.918-6.7148 2.2383-15.117-3.3594-21.277zm-182.56 344.96-29.68-118.72c-1.6797-7.2812-7.2812-12.32-14-14l-118.72-29.68 292.32-129.92z"/>
 </g> 
</svg>
